<?xml version="1.0" encoding="UTF-8"?>
<svg version="1.1" xmlns="http://www.w3.org/2000/svg" width="1566" height="1566">
<path d="M0 0 C3.82027733 0.00251018 7.64053212 -0.00659917 11.46080065 -0.01403749 C18.91189109 -0.02667087 26.3629453 -0.02859245 33.81404465 -0.02623723 C39.88394819 -0.02444058 45.9538409 -0.02623222 52.02374315 -0.03046167 C52.89381714 -0.03105686 53.76389112 -0.03165205 54.66033098 -0.03226527 C56.42899676 -0.03347727 58.19766254 -0.0346914 59.96632832 -0.03590765 C76.48793789 -0.04674001 93.00952695 -0.04464155 109.53113765 -0.0385228 C124.56855979 -0.03336079 139.60591702 -0.04459792 154.64332634 -0.06362102 C170.16609709 -0.08310413 185.6888373 -0.091237 201.21162033 -0.08749777 C209.89335027 -0.08560108 218.57502505 -0.08792114 227.25674486 -0.10221231 C234.65022913 -0.11426192 242.04362433 -0.11538223 249.43711013 -0.10342214 C253.19209317 -0.09762604 256.94691447 -0.09616765 260.7018857 -0.10842454 C352.36462727 -0.38680503 442.22354168 27.52719609 514.79884386 84.27610838 C515.60579699 84.90259276 516.41275011 85.52907713 517.24415636 86.17454588 C536.71858166 101.51613495 555.71885168 118.36814212 571.79884386 137.27610838 C572.64575792 138.23388182 573.49267199 139.19165526 574.36525011 140.17845213 C640.77696698 215.62623892 670.69703378 310.01818567 673.79884386 409.27610838 C604.49884386 409.27610838 535.19884386 409.27610838 463.79884386 409.27610838 C463.46884386 402.67610838 463.13884386 396.07610838 462.79884386 389.27610838 C462.34180254 385.13816439 461.85778704 381.11773744 461.17384386 377.02610838 C461.00199572 375.98873534 460.83014757 374.95136229 460.65309191 373.8825537 C451.91043175 324.23954648 424.37453633 279.19996419 383.79884386 249.27610838 C382.2074962 248.10241698 382.2074962 248.10241698 380.58400011 246.90501463 C347.13318643 223.04701773 307.40654127 210.10364298 266.31758165 210.13566649 C265.10751239 210.13269537 263.89744313 210.12972425 262.6507051 210.12666309 C259.32227718 210.11953644 255.99390094 210.11680799 252.66546917 210.11606562 C249.06327451 210.11420105 245.46109073 210.10664669 241.85890245 210.09993041 C233.9946255 210.08640162 226.13035368 210.08033052 218.26606703 210.07591975 C213.34422433 210.0731473 208.42238356 210.0689081 203.50054216 210.06441557 C189.84168036 210.05222859 176.18282009 210.04192909 162.52395296 210.03854048 C161.65127707 210.03832092 160.77860117 210.03810135 159.87948056 210.03787513 C159.00485072 210.03765685 158.13022088 210.03743858 157.22908711 210.03721368 C155.45709197 210.03677024 153.68509682 210.03632367 151.91310167 210.03587401 C151.03415213 210.03565258 150.15520258 210.03543115 149.2496182 210.03520301 C135.03300703 210.03126172 120.81644732 210.0138256 106.59985599 209.99051449 C91.96234403 209.96670938 77.32485779 209.95433444 62.68732619 209.95317256 C54.48578967 209.95226078 46.28432018 209.94663508 38.0828023 209.92835295 C31.09388781 209.91282753 24.10506107 209.90790372 17.11613259 209.91609105 C13.56082281 209.91995451 10.00568902 209.91928384 6.45040178 209.90503371 C-29.71494925 209.7686907 -64.31679102 215.07618379 -96.50242567 232.36790526 C-98.014503 233.17631682 -99.5424158 233.95495001 -101.07224989 234.72923338 C-114.69671881 241.77427823 -126.74731199 251.16342768 -138.20115614 261.27610838 C-139.04549208 261.99798338 -139.88982801 262.71985838 -140.75974989 263.46360838 C-145.70967531 267.73740571 -150.0548465 272.22456156 -154.20115614 277.27610838 C-154.85688612 278.06332274 -154.85688612 278.06332274 -155.52586317 278.86644042 C-162.79206328 287.60968822 -169.32587259 296.54595055 -175.20115614 306.27610838 C-175.87791395 307.37181151 -176.55467176 308.46751463 -177.25193739 309.59642088 C-187.96008634 327.51957505 -195.01347393 347.4844393 -199.45115614 367.83860838 C-199.60229872 368.52052245 -199.7534413 369.20243651 -199.90916395 369.90501463 C-203.4231878 387.16577284 -203.50033035 404.4952277 -203.47726452 422.0381974 C-203.47476585 425.60893699 -203.48384994 429.17965193 -203.49130201 432.75038207 C-203.50396593 439.72235217 -203.5058531 446.69428362 -203.50350175 453.6662633 C-203.50170871 459.34259594 -203.50348919 465.01891698 -203.50772619 470.69524825 C-203.50861898 471.91345638 -203.50861898 471.91345638 -203.5095298 473.15627479 C-203.51074173 474.80690163 -203.51195586 476.45752846 -203.51317217 478.1081553 C-203.52401615 493.54313413 -203.52190043 508.97809104 -203.51578733 524.41307108 C-203.51062348 538.47983548 -203.52186518 552.54653052 -203.54088555 566.61328121 C-203.56034022 581.1142926 -203.56850648 595.61527131 -203.56476229 610.11629581 C-203.56286145 618.23447664 -203.56522746 626.35259851 -203.57947683 634.47076857 C-203.5914896 641.38373397 -203.59268644 648.29660413 -203.58068667 655.20957108 C-203.57486582 658.72454379 -203.57350518 662.23934322 -203.58568907 665.75430357 C-203.64316819 686.50536794 -202.90501468 707.29830681 -197.51365614 727.46360838 C-197.25801893 728.44369872 -197.00238173 729.42378905 -196.73899794 730.43357909 C-183.52723553 779.30725517 -151.08520115 823.07845579 -107.32542372 848.90892088 C-77.95203592 865.62260104 -45.70448682 876.44193274 -11.68083143 876.41655028 C-10.43037322 876.4195214 -9.17991501 876.42249252 -7.89156413 876.42555368 C-4.43656231 876.43357964 -0.98158131 876.43541079 2.47342873 876.43615115 C6.20649914 876.43800952 9.93955894 876.44556096 13.67262316 876.45228636 C21.83025546 876.4658409 29.98788282 876.47189048 38.1455245 876.47629702 C43.24740054 876.47906545 48.3492747 876.483304 53.45114946 876.48780119 C67.59886223 876.49999224 81.7465735 876.51029049 95.8942914 876.51367629 C96.79900346 876.51389585 97.70371551 876.51411542 98.63584308 876.51434164 C99.54263308 876.51455992 100.44942307 876.51477819 101.38369155 876.51500309 C103.22096888 876.51544654 105.05824622 876.5158931 106.89552355 876.51634276 C108.26253224 876.5166749 108.26253224 876.5166749 109.65715727 876.51701376 C124.39977366 876.52095555 139.14234043 876.53839138 153.88493767 876.56170228 C169.05005589 876.58548596 184.2151493 876.59788139 199.38028646 876.5990442 C207.88302533 876.59995726 216.38569962 876.60561545 224.88842058 876.62386382 C232.13404328 876.63936012 239.37958144 876.64432981 246.62521759 876.63612571 C250.31379996 876.63225202 254.00221263 876.6329852 257.69077349 876.64718306 C276.81759152 876.71660516 295.26335402 875.89375638 313.86134386 871.02610838 C314.67385607 870.81703856 315.48636827 870.60796874 316.32350206 870.39256346 C348.70366019 861.75306359 377.53831837 845.30366248 401.79884386 822.27610838 C402.31914171 821.78835936 402.83943956 821.30061034 403.37550402 820.79808104 C416.73788047 808.19882848 427.81119206 794.12630857 436.78126574 778.09251463 C437.78567385 776.29961722 438.81490424 774.52266868 439.84571886 772.74485838 C451.13168014 752.87949921 458.28471462 730.1411667 461.61134386 707.58860838 C461.77920397 706.45262206 461.77920397 706.45262206 461.95045519 705.29368651 C463.12325745 696.30126503 463.31983703 687.37723807 463.79884386 678.27610838 C533.09884386 678.27610838 602.39884386 678.27610838 673.79884386 678.27610838 C670.73311136 773.31381605 643.79391592 861.99185889 582.79884386 936.27610838 C582.13272081 937.08870116 582.13272081 937.08870116 581.45314074 937.91770995 C571.57555566 949.90582939 561.00776105 961.14769443 550.04884386 972.15110838 C549.25671495 972.94791014 548.46458605 973.7447119 547.64845324 974.56565917 C542.86011367 979.34097605 537.95494308 983.90119706 532.79884386 988.27610838 C532.16269152 988.81896483 531.52653917 989.36182127 530.87110949 989.92112792 C509.43101053 1008.09555218 486.35473584 1023.63603373 461.79884386 1037.27610838 C460.93581652 1037.7569287 460.07278917 1038.23774901 459.18360949 1038.73313963 C399.38420472 1071.74694066 331.92670502 1086.84478069 263.94420755 1086.66828239 C259.97207837 1086.6613494 255.99998456 1086.67204176 252.02786303 1086.68022215 C244.29068775 1086.69341314 236.55360083 1086.69074827 228.8164224 1086.68198423 C222.51681441 1086.67514998 216.21723082 1086.67431543 209.91762018 1086.67755568 C209.01376442 1086.67801538 208.10990866 1086.67847508 207.17866333 1086.67894871 C205.34129829 1086.67990809 203.50393326 1086.68088073 201.66656823 1086.68186648 C184.52413073 1086.69037736 167.38174172 1086.68065409 150.23931218 1086.66446538 C135.59596453 1086.65106386 120.95268827 1086.65339735 106.30934191 1086.66722167 C89.21780177 1086.68335017 72.12630389 1086.68955617 55.0347572 1086.68038487 C53.2052554 1086.67942944 51.37575359 1086.67848632 49.54625177 1086.67755568 C48.64658997 1086.67709285 47.74692816 1086.67663003 46.82000388 1086.67615318 C40.54250788 1086.67358515 34.26503916 1086.6778864 27.9875474 1086.68499434 C20.31665377 1086.69349088 12.64585198 1086.69096078 4.9749686 1086.67515211 C1.07665909 1086.66737757 -2.82149851 1086.66398741 -6.71980619 1086.67409956 C-30.60476927 1086.73093623 -54.14986666 1085.25195348 -77.70115614 1081.02610838 C-79.47921644 1080.71032835 -79.47921644 1080.71032835 -81.29319715 1080.38816893 C-155.16346316 1066.81737041 -225.49467638 1032.15894962 -280.46678114 980.82688963 C-283.05268152 978.41461399 -285.68021715 976.0596195 -288.32615614 973.71360838 C-295.34296039 967.40636861 -302.06409069 960.80569795 -308.18943739 953.62376463 C-309.77139517 951.77763526 -311.3731404 949.95863751 -312.99412489 948.14720213 C-332.46221098 926.25851314 -349.1042645 901.9319486 -363.20115614 876.27610838 C-363.67762587 875.41356444 -364.15409559 874.55102049 -364.6450038 873.66233885 C-395.64014488 817.13578008 -413.38968623 752.29199795 -413.34159803 687.69104064 C-413.34456916 686.41039982 -413.34754028 685.12975901 -413.35060143 683.8103109 C-413.35855831 680.30307933 -413.36045457 676.79586834 -413.3611989 673.28862882 C-413.36306962 669.48660345 -413.37062693 665.68458829 -413.37733412 661.88256896 C-413.39083935 653.58818614 -413.39693051 645.29380821 -413.40134478 636.99941623 C-413.4041217 631.8027659 -413.40836169 626.60611739 -413.41284895 621.40946829 C-413.4250337 606.97240532 -413.43533309 592.53534378 -413.43872404 578.09827578 C-413.43905339 576.71574325 -413.43905339 576.71574325 -413.43938939 575.30528077 C-413.43960767 574.38159341 -413.43982595 573.45790604 -413.44005084 572.50622815 C-413.44049428 570.63500659 -413.44094084 568.76378502 -413.44139051 566.89256346 C-413.44161194 565.96440565 -413.44183337 565.03624784 -413.44206151 564.07996403 C-413.44599947 549.08077222 -413.46342634 534.08162928 -413.48675004 519.0824563 C-413.51059837 503.6187353 -413.52293205 488.15503867 -413.52409196 472.69129902 C-413.52500144 464.03513984 -413.53056717 455.3790443 -413.54891157 446.72290289 C-413.56449622 439.34384545 -413.56932726 431.96487129 -413.56117347 424.58580048 C-413.55732999 420.83695083 -413.55787666 417.08826788 -413.57223082 413.33943999 C-413.79366415 351.82874643 -402.03147472 292.18825321 -376.20115614 236.27610838 C-375.46615419 234.64488032 -374.73176442 233.01337625 -373.99803114 231.38157713 C-354.37530917 188.27527308 -325.08214292 149.966429 -291.72166395 116.61131346 C-290.19628901 115.08373422 -288.67914942 113.54827256 -287.16209364 112.01243651 C-280.8339 105.64862572 -274.23645168 99.86364237 -267.20115614 94.27610838 C-266.17351106 93.41283326 -265.15009387 92.54444345 -264.13474989 91.66673338 C-244.89594148 75.16772398 -223.3041218 61.57445877 -201.20115614 49.27610838 C-200.38695204 48.82235838 -199.57274794 48.36860838 -198.73387098 47.90110838 C-184.33489837 39.94905761 -169.46111348 33.39354719 -154.20115614 27.27610838 C-152.93755262 26.76588133 -152.93755262 26.76588133 -151.64842176 26.24534667 C-124.46813366 15.38572028 -95.40306284 8.42710614 -66.51365614 4.02610838 C-65.53130995 3.87496581 -64.54896376 3.72382323 -63.5368495 3.56810057 C-42.41963601 0.55790813 -21.29973821 -0.02633389 0 0 Z " fill="#FEFEFE" transform="translate(659.2011561393738,249.72389161586761)"/>
<path d="M0 0 C2.76997341 0.00108458 5.53992464 -0.0038512 8.30989319 -0.00860542 C14.86104728 -0.01962969 21.41214402 -0.02017899 27.96330285 -0.01409125 C34.65818793 -0.00806427 41.35286216 -0.02034638 48.04771131 -0.04166132 C53.85214911 -0.05944254 59.65652083 -0.06525284 65.46098477 -0.06202358 C68.90270536 -0.06023583 72.34427572 -0.06258827 75.78597093 -0.07673812 C119.44100327 -0.21889492 158.58196056 9.23780795 192.22233605 38.30158257 C193.21362512 39.15752007 194.20491418 40.01345757 195.2262423 40.89533257 C223.75790305 66.02124858 240.70419525 101.81969227 245.22233605 139.30158257 C245.48530632 143.92350459 245.50642908 148.53114948 245.49699426 153.15973687 C245.50466065 155.13820359 245.50466065 155.13820359 245.51248193 157.15663934 C245.52573147 160.73550527 245.52646623 164.3142647 245.52391863 167.89315033 C245.52283877 170.90184687 245.52775818 173.91052274 245.53252405 176.91921479 C245.54357183 184.03065496 245.54408417 191.1420423 245.53800988 198.25348687 C245.531981 205.53968909 245.54426435 212.82569768 245.56557995 220.11186689 C245.58331728 226.41130898 245.58917818 232.71069013 245.58594221 239.01015621 C245.58414758 242.75307537 245.58657942 246.49585654 245.60065675 250.2387526 C245.6531727 265.4853665 245.59939297 280.35910348 242.22233605 295.30158257 C242.01893609 296.24711495 241.81553613 297.19264733 241.60597253 298.16683221 C241.14536251 300.23607107 240.61848019 302.26397487 240.03483605 304.30158257 C239.82761926 305.03103082 239.62040246 305.76047906 239.40690637 306.51203179 C232.14971696 330.83975496 218.51327209 351.96083971 201.22233605 370.30158257 C200.56233605 371.0260357 199.90233605 371.75048882 199.22233605 372.49689507 C188.15698806 384.19095602 174.52169981 393.07916913 160.22233605 400.30158257 C159.53478234 400.65204644 158.84722863 401.00251031 158.13883996 401.36359429 C137.38380754 411.75308548 114.60562876 416.62438601 91.45011926 416.57624078 C89.50310365 416.58390718 89.50310365 416.58390718 87.51675439 416.59172845 C83.99986146 416.60495876 80.48307702 416.60571498 76.96616411 416.60316515 C74.0072181 416.60208397 71.04829304 416.60700797 68.08935159 416.61177057 C61.09435669 416.62281168 54.0994155 416.62333448 47.10441613 416.6172564 C39.94261178 416.61122796 32.78100444 416.62351132 25.61923367 416.64482647 C19.42251482 416.6625758 13.22585792 416.66842287 7.02911466 416.66518873 C3.34933478 416.663396 -0.3303047 416.66580606 -4.01006103 416.67990327 C-22.95797962 416.7463541 -41.48108705 416.43913266 -59.71516395 410.67658257 C-60.52960975 410.42352349 -61.34405555 410.17046441 -62.18318152 409.90973687 C-82.94361137 403.20313323 -101.38467646 392.68726547 -117.77766395 378.30158257 C-118.65035926 377.55005914 -119.52305457 376.7985357 -120.4221952 376.02423882 C-150.2127814 349.89606352 -168.18910113 310.64773739 -170.77766395 271.30158257 C-170.77766395 267.34158257 -170.77766395 263.38158257 -170.77766395 259.30158257 C-144.04766395 259.30158257 -117.31766395 259.30158257 -89.77766395 259.30158257 C-88.78766395 265.24158257 -87.79766395 271.18158257 -86.77766395 277.30158257 C-81.31996544 296.98828077 -70.02505221 314.14781805 -52.08235145 324.49689507 C-50.7568186 325.2123365 -49.42607698 325.9182161 -48.09016395 326.61408257 C-47.21122474 327.0843084 -47.21122474 327.0843084 -46.31452918 327.56403375 C-30.32681888 335.41002932 -13.45923834 334.89502116 3.90983605 334.83283257 C6.58391745 334.83553313 9.25797695 334.83941605 11.93205285 334.84442925 C17.51294534 334.85166057 23.09362455 334.84223806 28.67448449 334.82306695 C35.08213391 334.80130673 41.4892738 334.80836135 47.89691091 334.83037257 C53.44652589 334.84865685 58.99598953 334.85102202 64.54562497 334.8406179 C67.83911315 334.83445368 71.13231613 334.8349718 74.42579675 334.84676385 C91.34232425 334.89405625 107.39869714 334.74103391 122.65983605 326.48908257 C123.32176965 326.14361382 123.98370324 325.79814507 124.66569543 325.44220757 C129.98088958 322.59422327 134.74889233 319.36181664 139.22233605 315.30158257 C139.90553918 314.69830132 140.5887423 314.09502007 141.29264855 313.47345757 C154.57638441 301.04836624 162.98025067 282.32398354 163.61001611 264.17638421 C163.63049657 262.04722869 163.63527813 259.91787859 163.62638879 257.78864312 C163.63325204 256.61275628 163.64011529 255.43686944 163.64718652 254.22534966 C163.66532705 250.37954027 163.66163464 246.53414388 163.6559298 242.68830132 C163.65841318 240.67156443 163.66276216 238.65483728 163.66728288 236.63810402 C163.68125991 230.30819357 163.67982507 223.97841826 163.66838098 217.6485064 C163.65691535 211.16425218 163.67096458 204.68041235 163.69777745 198.19621271 C163.72008465 192.58722517 163.72653812 186.97836627 163.72070104 181.36933762 C163.71736468 178.03773727 163.72128314 174.70661143 163.73695207 171.37501359 C163.80536116 154.44544809 163.72369106 138.30133601 155.53483605 122.98908257 C155.19379846 122.33230523 154.85276086 121.67552789 154.50138879 120.9988482 C144.92851964 103.22159357 129.77138957 92.07225988 111.03483605 85.34455132 C101.8928987 82.84363199 92.89810267 82.00392993 83.44963098 82.02692437 C81.78602281 82.01925797 81.78602281 82.01925797 80.08880639 82.0114367 C76.4600827 81.99765431 72.83155139 81.99848898 69.2028048 82.00080132 C66.65514073 81.99690803 64.1074773 81.99257206 61.55981469 81.9878161 C56.23334908 81.98037814 50.90695264 81.98048707 45.58049035 81.98590875 C39.46268754 81.99194112 33.34511514 81.97964362 27.22735161 81.95833868 C21.29533785 81.93845616 15.36339412 81.93556573 9.43134522 81.9390738 C6.92896826 81.93856391 4.42658734 81.93338925 1.92423081 81.92326188 C-25.30447228 81.82657799 -47.56244825 85.4853514 -67.77766395 105.30158257 C-68.47891395 105.96673882 -69.18016395 106.63189507 -69.90266395 107.31720757 C-76.36821675 113.93429678 -80.07192256 121.93600968 -83.77766395 130.30158257 C-84.12828895 131.09306695 -84.47891395 131.88455132 -84.84016395 132.70002007 C-87.78659875 140.46510346 -88.45478607 149.36431534 -89.77766395 157.30158257 C-116.50766395 157.30158257 -143.23766395 157.30158257 -170.77766395 157.30158257 C-170.77766395 113.65476148 -154.39524627 75.13140224 -123.96516395 44.05158257 C-104.22959509 24.53853336 -79.33847234 11.30001265 -52.52766395 4.42658257 C-51.78532508 4.23539849 -51.04298621 4.04421441 -50.27815223 3.84723687 C-33.65651894 -0.09775969 -16.98466887 -0.01321076 0 0 Z " fill="#FEFEFE" transform="translate(751.7776639461517,584.6984174251556)"/>
<path d="M0 0 C1.24003029 -0.01007584 1.24003029 -0.01007584 2.50511169 -0.02035522 C5.23157808 -0.03931557 7.957798 -0.04325855 10.68432617 -0.04541016 C12.58615723 -0.05183989 14.48798729 -0.05856838 16.38981628 -0.06558228 C20.37513521 -0.07755045 24.3603675 -0.08126361 28.34570312 -0.08007812 C33.43995969 -0.07987507 38.53365758 -0.10716589 43.62778187 -0.14162254 C47.55615261 -0.16391614 51.48438949 -0.1679149 55.412817 -0.16685867 C57.29020804 -0.16921136 59.16760295 -0.17801607 61.04493141 -0.19352341 C63.67748161 -0.21323159 66.30883468 -0.20732661 68.94140625 -0.1953125 C69.70895233 -0.20655151 70.47649841 -0.21779053 71.26730347 -0.22937012 C77.79188027 -0.15412215 82.87914275 1.94367702 87.87182617 6.14990234 C88.40163086 6.77380859 88.93143555 7.39771484 89.47729492 8.04052734 C90.01999023 8.65412109 90.56268555 9.26771484 91.12182617 9.89990234 C94.92273341 15.78890292 96.11253525 21.483966 96.05297852 28.3996582 C96.05823547 29.16665543 96.06349243 29.93365265 96.06890869 30.72389221 C96.08200639 33.23459843 96.07340652 35.74465952 96.06323242 38.25537109 C96.06525631 40.01599752 96.06817037 41.77662313 96.07192993 43.5372467 C96.07633961 47.21802797 96.06996687 50.89859003 96.0559082 54.5793457 C96.03882974 59.27765102 96.04865758 63.97544159 96.0666256 68.67372799 C96.07751099 72.30705075 96.07399515 75.94025324 96.06624222 79.57357979 C96.06425268 81.30498886 96.06665529 83.03640914 96.07368088 84.7678051 C96.14244439 106.47664475 96.14244439 106.47664475 88.41088867 114.78662109 C82.06046898 120.25622195 75.16100464 121.43706103 67.02563477 121.4675293 C66.26082794 121.47410049 65.49602112 121.48067169 64.70803833 121.48744202 C62.18060192 121.50712679 59.6532249 121.51882891 57.12573242 121.52880859 C55.82604963 121.53492188 55.82604963 121.53492188 54.50011063 121.54115868 C49.91096487 121.56200222 45.32184883 121.57630947 40.73266602 121.58569336 C36.01188826 121.5967341 31.29158493 121.63111177 26.57097435 121.67086506 C22.92476577 121.69711814 19.27866857 121.70539304 15.63237381 121.70897484 C13.89338616 121.71382098 12.15440283 121.72537818 10.41550827 121.74401283 C-0.75196995 121.85621761 -10.53640541 121.79310951 -19.27270508 113.97802734 C-24.70185686 108.46883893 -25.78383557 102.23746899 -25.75512695 94.85180664 C-25.7635965 94.03779388 -25.77206604 93.22378113 -25.78079224 92.38510132 C-25.80406611 89.71148774 -25.80518657 87.03845305 -25.80395508 84.36474609 C-25.81106337 82.49298374 -25.81876334 80.62122355 -25.82702637 78.74946594 C-25.8404498 74.83153219 -25.84204997 70.91379987 -25.83618164 66.99584961 C-25.83029308 61.99585501 -25.86085211 56.99683393 -25.90129852 51.9970274 C-25.92725755 48.13203298 -25.93004542 44.26727027 -25.92640686 40.4022007 C-25.928091 38.55995046 -25.93766493 36.7176887 -25.95555115 34.87552452 C-26.13232955 14.41557105 -26.13232955 14.41557105 -18.52111816 6.37382507 C-12.89891318 1.09382312 -7.6131601 -0.00891958 0 0 Z " fill="#FDFDFD" transform="translate(754.335205078125,732.70947265625)"/>
<path d="M0 0 C0 3 0 3 -1.8359375 5.17651367 C-2.67382812 5.99869385 -3.51171875 6.82087402 -4.375 7.66796875 C-5.27734375 8.56064453 -6.1796875 9.45332031 -7.109375 10.37304688 C-8.0727573 11.31136157 -9.03630108 12.2495105 -10 13.1875 C-10.96422346 14.13667769 -11.92777392 15.08653956 -12.890625 16.03710938 C-15.25386746 18.36490319 -17.62381482 20.68543133 -20 23 C-20.66 22.67 -21.32 22.34 -22 22 C-6.35051546 4.23367698 -6.35051546 4.23367698 0 0 Z " fill="#F2F2F2" transform="translate(638,620)"/>
</svg>
